<svg id="Layer_1" data-name="Layer 1" xmlns="http://www.w3.org/2000/svg" viewBox="0 0 300 100"><defs><style>.cls-1{fill:#515352;}</style></defs><title>Client-Logos</title><path class="cls-1" d="M98.09,86.12V66.4h13.33v3.76H103v3.46h7.75v3.76H103v5h8.41v3.76Z"/><path class="cls-1" d="M131.25,66.4l-6.78,19.72h-5.16L112.53,66.4h5.14L122,79.77l4.29-13.36Z"/><path class="cls-1" d="M133.08,86.12V66.4h13.33v3.76H138v3.46h7.75v3.76H138v5h8.41v3.76Z"/><path class="cls-1" d="M166.66,86.12h-4.77l-7.6-13.74V86.12h-4.53V66.4h6.08l6.29,11.3V66.4h4.53Z"/><path class="cls-1" d="M174.44,86.12v-16h-5.83V66.4h16.61v3.76H179.4v16Z"/><path class="cls-1" d="M193.35,86.48a16.23,16.23,0,0,1-4-.44A20.41,20.41,0,0,1,186.19,85V80.27h.45a11.06,11.06,0,0,0,3.27,1.93,9.78,9.78,0,0,0,3.47.67,9.18,9.18,0,0,0,1.12-.09,3.93,3.93,0,0,0,1.12-.29,2.47,2.47,0,0,0,.87-.63,1.54,1.54,0,0,0,.36-1.07,1.47,1.47,0,0,0-.58-1.2,3.72,3.72,0,0,0-1.39-.68q-1-.27-2.15-.5a17,17,0,0,1-2.14-.58,6.66,6.66,0,0,1-3.29-2.17,5.65,5.65,0,0,1-1-3.42,5.31,5.31,0,0,1,2.34-4.48A9.64,9.64,0,0,1,194.51,66a17.35,17.35,0,0,1,3.5.36,15.36,15.36,0,0,1,3.12,1v4.5h-.44A9.81,9.81,0,0,0,198,70.28a8.5,8.5,0,0,0-3.25-.65,6.72,6.72,0,0,0-1.16.09,4.49,4.49,0,0,0-1.09.36,2.21,2.21,0,0,0-.8.63,1.45,1.45,0,0,0-.34.93,1.48,1.48,0,0,0,.54,1.2,5.45,5.45,0,0,0,2.07.8l1.91.44a18.21,18.21,0,0,1,2,.58,6.7,6.7,0,0,1,3.05,2,5.13,5.13,0,0,1,1,3.3,5.69,5.69,0,0,1-2.31,4.73A10,10,0,0,1,193.35,86.48Z"/><path class="cls-1" d="M184.23,92.3a.77.77,0,0,0-.34-.34,1.28,1.28,0,0,0-.53-.1,1.64,1.64,0,0,0-.55.09,1.3,1.3,0,0,0-.49.34,2.41,2.41,0,0,0-.43.69,5,5,0,0,0-.32,1.14,4.46,4.46,0,0,0-.08,1.1,1.73,1.73,0,0,0,.16.64.73.73,0,0,0,.34.33,1.41,1.41,0,0,0,1.11,0,1.25,1.25,0,0,0,.49-.33,2.49,2.49,0,0,0,.42-.67,5,5,0,0,0,.3-1.11,4.7,4.7,0,0,0,.09-1.11A1.67,1.67,0,0,0,184.23,92.3Z"/><path class="cls-1" d="M98.09,88.23V100H201.91V88.23Zm69.67,10.15a1.66,1.66,0,1,1,1.66-1.66A1.67,1.67,0,0,1,167.76,98.38Zm9.86-5.53h-.5l0-.05a3.45,3.45,0,0,0-.29-.29,2.54,2.54,0,0,0-.38-.29,2.31,2.31,0,0,0-.52-.23,2.19,2.19,0,0,0-.67-.09,1.89,1.89,0,0,0-1.43.6,3.1,3.1,0,0,0-.77,1.65,2.05,2.05,0,0,0,.21,1.61,1.42,1.42,0,0,0,1.21.51,2.82,2.82,0,0,0,.77-.1,3.17,3.17,0,0,0,.61-.23,3.24,3.24,0,0,0,.44-.28l.34-.27,0,0h.54l-.41,2.31-.59.24a5.07,5.07,0,0,1-.61.2c-.25.06-.48.11-.69.15a5.36,5.36,0,0,1-.84.05,5.74,5.74,0,0,1-1.75-.25,3.16,3.16,0,0,1-1.3-.78,2.85,2.85,0,0,1-.71-1.33,4.48,4.48,0,0,1,0-1.85,5.37,5.37,0,0,1,.7-1.93,4.73,4.73,0,0,1,1.21-1.32,4.79,4.79,0,0,1,1.53-.73,6,6,0,0,1,3-.08,5,5,0,0,1,1.24.48l.09.05Zm9.43,1.27a5.19,5.19,0,0,1-1.61,3.08,4.7,4.7,0,0,1-3.23,1.13,3.41,3.41,0,0,1-2.85-1.15,3.82,3.82,0,0,1-.55-3.11A5.18,5.18,0,0,1,180.44,91a4.72,4.72,0,0,1,3.22-1.12A3.41,3.41,0,0,1,186.52,91,3.83,3.83,0,0,1,187.06,94.12ZM200.43,93l-.9,5.14h-2.71l.71-4c.06-.37.11-.7.15-1a1.74,1.74,0,0,0,0-.58.4.4,0,0,0-.19-.27,1.07,1.07,0,0,0-.51-.09,1.34,1.34,0,0,0-.51.11,4.19,4.19,0,0,0-.56.29l-1,5.52h-2.71l.71-4c.07-.38.11-.69.14-.95a1.75,1.75,0,0,0,0-.59.4.4,0,0,0-.19-.27,1.06,1.06,0,0,0-.51-.09,1.34,1.34,0,0,0-.54.12,5.28,5.28,0,0,0-.53.28l-1,5.52h-2.7l1.41-8h2.7l-.12.67a7.83,7.83,0,0,1,1-.58,2.89,2.89,0,0,1,1.29-.3,2.15,2.15,0,0,1,1.27.36,1.74,1.74,0,0,1,.64.87,8.86,8.86,0,0,1,1.33-.87,2.82,2.82,0,0,1,2.36-.18,1.6,1.6,0,0,1,.69.57,2.17,2.17,0,0,1,.35.95A4.57,4.57,0,0,1,200.43,93Z"/><path class="cls-1" d="M130.21,57.62H115.49c1.47-10.27,3-20.73,4.51-31.17.18-1.24.58-3-1.07-3-.64,0-1.24.56-1.75.88a42.44,42.44,0,0,1-13.23,5c.48-3.66.93-7.34,1.41-11,7.51-3.27,14.27-7.23,19.55-12.52h12.55c-.07.65-.5,3.7-1.11,8l1.79-.92c.48-3.4.8-5.72.86-6.3l.38-3.31H124.27l-.33.33c-4.65,4.65-10.92,8.67-19.2,12.27l-.76.33-.16,1.24q-.38,2.89-.74,5.79-.33,2.61-.67,5.21l-.51,3.89,2.48-.55c3.83-.85,9.29-2.43,13.55-5.14l.41-.28c-1.48,10.09-2.94,20.27-4.35,30.12l-.52,3.66h18.06l.22-1.66c.57-4.36,2.27-16.39,3.88-27.74-.59.18-1.17.34-1.73.48C132.35,42.18,130.76,53.42,130.21,57.62Z"/><path class="cls-1" d="M157.39,57.62H142.67c1.47-10.27,3-20.73,4.5-31.17.18-1.24.58-3-1.07-3-.63,0-1.24.56-1.75.88A35.62,35.62,0,0,1,136,28q-.86.27-1.73.51c-1,.29-2.1.55-3.15.79.48-3.66.93-7.34,1.41-11q1.73-.75,3.4-1.56l1.78-.88A56.11,56.11,0,0,0,152.09,5.78h10.68a19.87,19.87,0,0,1,3.67-1.42l.13-1.09H151.45l-.33.33a53.68,53.68,0,0,1-13,9.28l-1.79.92q-2.11,1.05-4.43,2.07l-.76.33L131,17.45q-.38,2.89-.74,5.79-.33,2.61-.67,5.21l-.51,3.89,2.48-.55c.73-.16,1.51-.35,2.33-.56.56-.15,1.14-.31,1.73-.48a38.24,38.24,0,0,0,9.49-4.09l.41-.28c-1.48,10.09-2.94,20.27-4.35,30.12l-.52,3.66h18.06l.22-1.66.18-1.32q-.76-.51-1.51-1.11Z"/><path class="cls-1" d="M197.65,42.31c-.54-6.88-4.23-9.72-6.25-10.91,3.32-1.67,6.65-4.41,7.14-10a15.72,15.72,0,0,0-1.6-8.2,17.4,17.4,0,0,0-8.76-7.88c-3-1.29-7.34-2-12.89-2h-.35a31.37,31.37,0,0,0-8.49,1,19.87,19.87,0,0,0-3.67,1.42c-5.44,2.77-7.51,7.4-8.61,11.21l-1,3.41,2.5.4,2.41.39,4.3.7.72.11v.07l.91.11,1.13.14c1,.12,2,.29,3,.45l1.12.18,1.14.18.3-1.67c.46-2.59,1.49-4.13,3.25-4.85a6.73,6.73,0,0,1,2.54-.48,5.24,5.24,0,0,1,4.18,1.66,3.06,3.06,0,0,1,.52,1.63,4.93,4.93,0,0,1-.71,2.81c-.81,1.19-2.69,2.61-7.06,2.61l-.84,0-1.19,0-.17,1.84c-.17,1.81-.35,3.6-.53,5.4q-.15,1.44-.29,2.88L170,38.51l2.3-.39A10.2,10.2,0,0,1,174,38c3.22,0,5.84,1.77,6.23,4.2.2,1.28,0,2.47-1.43,4.14a5.91,5.91,0,0,1-4.63,1.82h-.05c-4.79,0-6.42-3.3-7.22-5.79l-.57-1.75-1.64.2-.79.09v-.1l-2.25.32-.3,0-1.69.22-3.6.42c-2,.23-4,.45-5.18.62l-2.51.35L150,46.24A27.47,27.47,0,0,0,157.6,56q.74.59,1.51,1.11a25.94,25.94,0,0,0,14.63,4.19h0a35.81,35.81,0,0,0,11-1.75,20.15,20.15,0,0,0,6.19-3.41C192.72,54.77,198.29,50.45,197.65,42.31ZM190,53.89a19,19,0,0,1-5.88,3.24c-5,1.64-16,3.66-24.74-2.34q-.76-.52-1.5-1.12a25.21,25.21,0,0,1-6.7-8.77c1.82-.25,5.3-.63,8.05-1l1.69-.2,1-.14v0c1.19-.12,2.34-.26,3.51-.4,1.4,4.3,4,7.44,8.88,7.41a6.92,6.92,0,0,0,5.43-2.21,7.37,7.37,0,0,0,1.92-6.53c-.7-4.39-4.69-7.15-9.81-6.28.27-2.77.56-5.52.82-8.3,4.09.16,7.23-.76,8.85-3.14a7.9,7.9,0,0,0,0-8.15c-1.6-2.32-5.43-3-8.27-1.86-2.53,1-3.67,3.48-4.17,6.28-1.36-.22-2.7-.47-4.11-.64v0l-.67-.1-1.62-.25c-2.45-.39-5.49-.89-7.13-1.16.93-3.25,2.8-8,8.78-10.56q.82-.36,1.74-.66a29.65,29.65,0,0,1,9.38-1.25c4.57,0,9.24.53,12.48,1.92a15.5,15.5,0,0,1,7.79,6.87,11.73,11.73,0,0,1,1.2,6.09c-.42,4.81-3.76,7.29-7.77,9-.9.38-1.85.69-1.78,1.57.09,1.15,1.77,1.49,2.86,2.06a10.16,10.16,0,0,1,5.81,8.94C196.53,47.8,193.17,51.47,190,53.89Z"/><path class="cls-1" d="M201,41.5a16.88,16.88,0,0,0-4.08-10.2,15,15,0,0,0,5-10.18A18.72,18.72,0,0,0,200,11.36a20,20,0,0,0-10-9.07C186.57.85,181.85.1,175.87,0h-.36a39.9,39.9,0,0,0-5.31.34l.05-.39H150.49L149,1.52A43,43,0,0,1,142.1,7l1-7H123.31l-1.52,1.52c-4.26,4.27-10.12,8-17.92,11.39L101,14.17l-.45,3.42q-.38,2.9-.75,5.81-.33,2.6-.67,5.2l-1,7.81L104.56,35a57.37,57.37,0,0,0,9.69-3c-1.22,8.36-2.4,16.62-3.55,24.64l-1,6.82h24.65l.67-5.08c.21-1.59,1.38-10.08,3.47-25.26,1-.35,2-.73,2.92-1.12-1.2,8.24-2.38,16.47-3.52,24.46l-1,7h24.65l.12-.93a30.21,30.21,0,0,0,11.48,2.14h0a39.47,39.47,0,0,0,12.07-1.93,24,24,0,0,0,7.41-4.06C198.6,54,201.48,48.08,201,41.5ZM191.7,57.31A21.87,21.87,0,0,1,184.94,61a37.48,37.48,0,0,1-11.47,1.83h0a27.66,27.66,0,0,1-13.19-3.11l-.25,1.9h-21.1l.76-5.29c1.27-8.91,2.59-18.09,3.93-27.24a42.24,42.24,0,0,1-6.69,2.73c-1.73,12.51-3.39,24.6-3.65,26.56l-.43,3.24h-21.1l.73-5.11c1.28-8.94,2.6-18.16,4-27.41a50.26,50.26,0,0,1-12,4.14l-4.32,1,.75-5.7q.34-2.59.67-5.2.37-2.9.75-5.8l.3-2.25,1.75-.76C112.4,11,118.48,7.11,123,2.64l.88-.88h17.24l-1.18,8.55a48.9,48.9,0,0,0,10.24-7.67l.88-.88h17.24l-.1.7a35.61,35.61,0,0,1,7-.65h.36c5.75,0,10.26.76,13.43,2.11a18.57,18.57,0,0,1,9.35,8.43,17.11,17.11,0,0,1,1.73,8.92,13,13,0,0,1-5.88,10.09c2.92,2.45,4.63,6.06,5,10.56C199.65,47.93,197.13,53.1,191.7,57.31Z"/><path class="cls-1" d="M130.21,57.62H115.49c1.47-10.27,3-20.73,4.51-31.17.18-1.24.58-3-1.07-3-.64,0-1.24.56-1.75.88a42.44,42.44,0,0,1-13.23,5c.48-3.66.93-7.34,1.41-11,7.51-3.27,14.27-7.23,19.55-12.52h12.55c-.07.65-.5,3.7-1.11,8l1.79-.92c.48-3.4.8-5.72.86-6.3l.38-3.31H124.27l-.33.33c-4.65,4.65-10.92,8.67-19.2,12.27l-.76.33-.16,1.24q-.38,2.89-.74,5.79-.33,2.61-.67,5.21l-.51,3.89,2.48-.55c3.83-.85,9.29-2.43,13.55-5.14l.41-.28c-1.48,10.09-2.94,20.27-4.35,30.12l-.52,3.66h18.06l.22-1.66c.57-4.36,2.27-16.39,3.88-27.74-.59.18-1.17.34-1.73.48C132.35,42.18,130.76,53.42,130.21,57.62Z"/><path class="cls-1" d="M161.33,41.15c.6-4.27,1.25-8.83,1.86-13.17l.82-5.79-.91-.11V22l-.72-.11c-.87,6.15-1.87,13.18-2.75,19.48Z"/><path class="cls-1" d="M157.39,57.62H142.67c1.47-10.27,3-20.73,4.5-31.17.18-1.24.58-3-1.07-3-.63,0-1.24.56-1.75.88A35.62,35.62,0,0,1,136,28q-.86.27-1.73.51c-1,.29-2.1.55-3.15.79.48-3.66.93-7.34,1.41-11q1.73-.75,3.4-1.56l1.78-.88A56.11,56.11,0,0,0,152.09,5.78h10.68a19.87,19.87,0,0,1,3.67-1.42l.13-1.09H151.45l-.33.33a53.68,53.68,0,0,1-13,9.28l-1.79.92q-2.11,1.05-4.43,2.07l-.76.33L131,17.45q-.38,2.89-.74,5.79-.33,2.61-.67,5.21l-.51,3.89,2.48-.55c.73-.16,1.51-.35,2.33-.56.56-.15,1.14-.31,1.73-.48a38.24,38.24,0,0,0,9.49-4.09l.41-.28c-1.48,10.09-2.94,20.27-4.35,30.12l-.52,3.66h18.06l.22-1.66.18-1.32q-.76-.51-1.51-1.11Z"/><path class="cls-1" d="M197.65,42.31c-.54-6.88-4.23-9.72-6.25-10.91,3.32-1.67,6.65-4.41,7.14-10a15.72,15.72,0,0,0-1.6-8.2,17.4,17.4,0,0,0-8.76-7.88c-3-1.29-7.34-2-12.89-2h-.35a31.37,31.37,0,0,0-8.49,1,19.87,19.87,0,0,0-3.67,1.42c-5.44,2.77-7.51,7.4-8.61,11.21l-1,3.41,2.5.4,2.41.39,4.3.7.72.11v.07l.91.11,1.13.14c1,.12,2,.29,3,.45l1.12.18,1.14.18.3-1.67c.46-2.59,1.49-4.13,3.25-4.85a6.73,6.73,0,0,1,2.54-.48,5.24,5.24,0,0,1,4.18,1.66,3.06,3.06,0,0,1,.52,1.63,4.93,4.93,0,0,1-.71,2.81c-.81,1.19-2.69,2.61-7.06,2.61l-.84,0-1.19,0-.17,1.84c-.17,1.81-.35,3.6-.53,5.4q-.15,1.44-.29,2.88L170,38.51l2.3-.39A10.2,10.2,0,0,1,174,38c3.22,0,5.84,1.77,6.23,4.2.2,1.28,0,2.47-1.43,4.14a5.91,5.91,0,0,1-4.63,1.82h-.05c-4.79,0-6.42-3.3-7.22-5.79l-.57-1.75-1.64.2-.79.09v-.1l-2.25.32-.3,0-1.69.22-3.6.42c-2,.23-4,.45-5.18.62l-2.51.35L150,46.24A27.47,27.47,0,0,0,157.6,56q.74.59,1.51,1.11a25.94,25.94,0,0,0,14.63,4.19h0a35.81,35.81,0,0,0,11-1.75,20.15,20.15,0,0,0,6.19-3.41C192.72,54.77,198.29,50.45,197.65,42.31ZM190,53.89a19,19,0,0,1-5.88,3.24c-5,1.64-16,3.66-24.74-2.34q-.76-.52-1.5-1.12a25.21,25.21,0,0,1-6.7-8.77c1.82-.25,5.3-.63,8.05-1l1.69-.2,1-.14v0c1.19-.12,2.34-.26,3.51-.4,1.4,4.3,4,7.44,8.88,7.41a6.92,6.92,0,0,0,5.43-2.21,7.37,7.37,0,0,0,1.92-6.53c-.7-4.39-4.69-7.15-9.81-6.28.27-2.77.56-5.52.82-8.3,4.09.16,7.23-.76,8.85-3.14a7.9,7.9,0,0,0,0-8.15c-1.6-2.32-5.43-3-8.27-1.86-2.53,1-3.67,3.48-4.17,6.28-1.36-.22-2.7-.47-4.11-.64v0l-.67-.1-1.62-.25c-2.45-.39-5.49-.89-7.13-1.16.93-3.25,2.8-8,8.78-10.56q.82-.36,1.74-.66a29.65,29.65,0,0,1,9.38-1.25c4.57,0,9.24.53,12.48,1.92a15.5,15.5,0,0,1,7.79,6.87,11.73,11.73,0,0,1,1.2,6.09c-.42,4.81-3.76,7.29-7.77,9-.9.38-1.85.69-1.78,1.57.09,1.15,1.77,1.49,2.86,2.06a10.16,10.16,0,0,1,5.81,8.94C196.53,47.8,193.17,51.47,190,53.89Z"/></svg>