<svg id="Layer_1" data-name="Layer 1" xmlns="http://www.w3.org/2000/svg" viewBox="0 0 300 100"><defs><style>.cls-1{fill:#515352;}</style></defs><title>Client-Logos</title><path class="cls-1" d="M24.76,45.81v7.41H46.22c4.92,0,8.48-.71,10.69-2.28s3.21-4.35,3.21-8.48V32.4H12.5V22.14H74.73V42.67c-.21,7.63-3,13-8.41,16.26s-10.41,4.84-15,4.84H12.5V38.53H24.76Z"/><path class="cls-1" d="M193.19,41.65V37.8H174.65a4.91,4.91,0,0,0-3.27,1.15,8.81,8.81,0,0,0-1.86,1.86L161,57.08h-8.14l9.91-21.15a12.93,12.93,0,0,1,2.3-2.83,6.67,6.67,0,0,1,5-1.73l23.14,0h7.74V57.08h-7.74ZM177.75,41h7.74v16.1h-7.74Zm38.57,9.69h19.95v6.42H244V31.25H219.91a18.56,18.56,0,0,0-9.29,3c-3.36,2-5.13,5.4-5.22,10.08V57.08h9V50.67Zm19.86-6.5H214.42c0-2.35.66-4,2-5s3.54-1.42,6.63-1.42h13.1Zm25-3.19a4.92,4.92,0,0,1-3.32-1.11,3.49,3.49,0,0,1-1.33-2.74l0-5.8h-7.7V41a5.74,5.74,0,0,0,2.26,4.56,8,8,0,0,0,5.26,1.9l-6.19,9.65h7.87l6.64-9.65H275.2a4.91,4.91,0,0,1,3.27,1.15,3.45,3.45,0,0,1,1.37,2.7l0,5.8h7.7V47.44a5.65,5.65,0,0,0-2.26-4.51A8.41,8.41,0,0,0,280,41l6.19-9.65H278.3L271.66,41H261.22Z"/><path class="cls-1" d="M95.14,32.62h31.22c3.34,0,4.5,3.76,1,5.12h-24.1V48.16h24.1c2.46.25,2.5,4.69.32,5.09a12,12,0,0,1-2.6.12H95.22V37.75ZM129.21,63.7c5.75,0,13.43-3,14.22-10.36.43-4,0-9.5-8.07-10.54,5.38,0,7.46-6.38,7.46-10.19,0-7.64-7.38-10.39-12.32-10.36l-4.34,0H82.74V63.7h46.47Z"/><path class="cls-1" d="M12.93,77.86V70.72h5.65q2.55,0,2.55,1.54v.87q0,1.29-1.77,1.5l1.69,3.23H19.62l-1.67-3.19H14.28v3.19Zm1.35-6.09v1.85h4.3q1.2,0,1.2-.49v-.87q0-.49-1.2-.49Z"/><path class="cls-1" d="M32.68,77.86H31.22L27.47,72l-3.81,5.83H22.23L27,70.72h1Z"/><path class="cls-1" d="M41.69,76.81v1.06H36.24q-2.55,0-2.55-1.64V72.36q0-1.64,2.55-1.64h5.45v1.06H36.24q-1.2,0-1.2.59v3.86q0,.59,1.2.59Z"/><path class="cls-1" d="M44.76,74.62v2.19h6v1.06H43.41V70.72h7.35v1.06h-6v1.79h5.69v1.06Z"/><path class="cls-1" d="M57.64,70.72h8.74v1.06H62.74v6.09H61.39V71.77H57.64Z"/><path class="cls-1" d="M67.79,70.72h1.35v7.14H67.79Z"/><path class="cls-1" d="M71,70.72h1.26l4.24,5.83,4.22-5.83h1.16v7.14h-1.3v-5l-3.58,5H75.9l-3.59-5v5H71Z"/><path class="cls-1" d="M83.71,70.72h1.35v7.14H83.71Z"/><path class="cls-1" d="M88.21,72.42v5.44H86.93V70.72H88l7.11,5.48V70.72h1.28v7.14H95.32Z"/><path class="cls-1" d="M104.76,74h1.35v2.37q0,1.52-2.55,1.52H100.4q-2.55,0-2.55-1.54V72.26q0-1.54,2.55-1.54H106v1.06H100.4q-1.2,0-1.2.49v4.06q0,.49,1.2.49h3.16q1.2,0,1.2-.47Z"/><path class="cls-1" d="M119.75,70.72v1.06h-3.82q-1.2,0-1.2.49v.81a.4.4,0,0,0,.28.36,2.15,2.15,0,0,0,.85.13h4.22v1.06h-.77v3.25h-3.38q-2.55,0-2.55-1.54V75.1a1.22,1.22,0,0,1,.45-1,1.24,1.24,0,0,1-.45-1v-.81q0-1.54,2.55-1.54Zm-5,5.6q0,.49,1.2.49h2V74.62h-2.11a2,2,0,0,0-.84.14q-.28.14-.28.35Z"/><path class="cls-1" d="M127.31,70.72h1.26l4.24,5.83L137,70.72h1.16v7.14h-1.3v-5l-3.58,5H132.2l-3.59-5v5h-1.3Z"/><path class="cls-1" d="M146.34,76.81q1.2,0,1.2-.77V70.72h1.35V76q0,1.83-2.55,1.83h-3.8Q140,77.86,140,76v-5.3h1.35V76q0,.79,1.2.79Z"/><path class="cls-1" d="M150.51,70.72h1.35v6.09h5.79v1.06h-7.14Z"/><path class="cls-1" d="M158.81,70.72h8.74v1.06h-3.64v6.09h-1.35V71.77h-3.74Z"/><path class="cls-1" d="M169,70.72h1.35v7.14H169Z"/><path class="cls-1" d="M178.42,73.53q2.55,0,2.55,1.54v1.27q0,1.52-2.55,1.52h-6.1V76.81h6.1q1.2,0,1.2-.47V75.07q0-.49-1.2-.49h-3.8q-2.55,0-2.55-1.54v-.78q0-1.54,2.55-1.54h5.9v1.06h-5.9q-1.2,0-1.2.49V73q0,.49,1.2.49Z"/><path class="cls-1" d="M182.69,77.86V70.72h5.55q2.55,0,2.55,1.54v1.42q0,1.54-2.55,1.54H184v2.64ZM184,71.77v2.39h4.2q1.2,0,1.2-.49V72.26q0-.49-1.2-.49Z"/><path class="cls-1" d="M192.08,72.26q0-1.54,2.55-1.54h4.1q2.55,0,2.55,1.54v4.08q0,1.52-2.55,1.52h-4.1q-2.55,0-2.55-1.54Zm6.65,4.55q1.2,0,1.2-.47V72.26q0-.49-1.2-.49h-4.1q-1.2,0-1.2.49v4.06q0,.49,1.2.49Z"/><path class="cls-1" d="M202.77,77.86V70.72h5.65q2.55,0,2.55,1.54v.87q0,1.29-1.77,1.5l1.69,3.23h-1.44l-1.67-3.19h-3.66v3.19Zm1.35-6.09v1.85h4.3q1.2,0,1.2-.49v-.87q0-.49-1.2-.49Z"/><path class="cls-1" d="M212.3,70.72H221v1.06h-3.64v6.09H216V71.77H212.3Z"/><path class="cls-1" d="M229.38,74.62v2.19h6v1.06H228V70.72h7.35v1.06h-6v1.79h5.69v1.06Z"/><path class="cls-1" d="M242.17,77.86h-1l-4.75-7.14h1.47l3.8,5.83,3.75-5.83h1.43Z"/><path class="cls-1" d="M249.41,74.62v2.19h6v1.06h-7.35V70.72h7.35v1.06h-6v1.79h5.69v1.06Z"/><path class="cls-1" d="M258.41,72.42v5.44h-1.28V70.72h1.07l7.11,5.48V70.72h1.28v7.14h-1.07Z"/><path class="cls-1" d="M268,70.72h8.74v1.06h-3.64v6.09h-1.35V71.77H268Z"/><path class="cls-1" d="M284.39,73.53q2.55,0,2.55,1.54v1.27q0,1.52-2.55,1.52h-6.1V76.81h6.1q1.2,0,1.2-.47V75.07q0-.49-1.2-.49h-3.8Q278,74.58,278,73v-.78q0-1.54,2.55-1.54h5.9v1.06h-5.9q-1.2,0-1.2.49V73q0,.49,1.2.49Z"/><path class="cls-1" d="M287.34,65.06h-136V60.14h136Zm0-37.81h-136V22.32h136Z"/></svg>