<?xml version="1.0" standalone="no"?>
<!DOCTYPE svg PUBLIC "-//W3C//DTD SVG 20010904//EN"
 "http://www.w3.org/TR/2001/REC-SVG-20010904/DTD/svg10.dtd">
<svg version="1.0" xmlns="http://www.w3.org/2000/svg"
 width="16.000000pt" height="16.000000pt" viewBox="0 0 16.000000 16.000000"
 preserveAspectRatio="xMidYMid meet">
<metadata>
Created by potrace 1.11, written by Peter Selinger 2001-2013
</metadata>
<g transform="translate(0.000000,16.000000) scale(0.002286,-0.002286)"
fill="#000000" stroke="none">
<path d="M3367 6934 c-1 -1 -49 -5 -107 -8 -58 -4 -116 -8 -130 -11 -14 -2
-47 -7 -75 -10 -27 -3 -61 -7 -75 -10 -14 -2 -42 -7 -63 -10 -21 -3 -79 -14
-130 -26 -51 -11 -103 -22 -117 -25 -57 -11 -302 -88 -400 -126 -130 -50 -367
-163 -475 -225 -129 -75 -373 -240 -405 -273 -3 -3 -25 -21 -50 -40 -104 -80
-299 -266 -405 -386 -468 -527 -762 -1179 -844 -1874 -23 -193 -32 -533 -17
-670 2 -25 7 -72 11 -105 3 -33 8 -71 10 -85 3 -14 7 -45 10 -70 3 -25 15 -90
26 -145 12 -55 23 -109 25 -120 10 -52 79 -282 115 -380 110 -301 283 -626
455 -853 38 -50 39 -34 -11 -252 -50 -217 -138 -473 -208 -600 -84 -156 -119
-211 -191 -299 -41 -51 -152 -154 -199 -186 l-49 -33 39 -6 c70 -10 187 -20
373 -32 111 -7 610 -7 690 0 30 3 93 8 140 12 47 3 92 7 100 9 8 2 44 6 80 10
36 4 72 8 80 10 8 1 49 8 90 15 175 28 436 99 554 150 l43 18 146 -49 c123
-41 298 -90 372 -105 11 -2 43 -8 70 -14 28 -5 66 -12 85 -15 19 -3 42 -8 50
-10 8 -2 43 -7 78 -10 35 -4 73 -8 85 -11 32 -6 259 -18 357 -18 92 0 313 11
370 18 39 6 106 15 160 22 239 34 565 127 804 229 547 234 984 568 1372 1048
37 45 145 200 191 272 178 280 328 614 408 911 51 192 72 288 89 404 29 211
39 345 39 535 0 196 -9 314 -38 515 -17 111 -17 111 -49 255 -115 518 -391
1063 -741 1464 -96 110 -276 291 -345 347 -19 16 -37 31 -40 34 -13 14 -162
131 -225 176 -396 284 -882 491 -1355 579 -14 3 -36 7 -49 10 -14 2 -61 9
-105 15 -45 6 -95 13 -111 15 -79 11 -499 27 -508 19z"/>
</g>
</svg>
