<svg id="Layer_1" data-name="Layer 1" xmlns="http://www.w3.org/2000/svg" viewBox="0 0 300 100"><defs><style>.cls-1{fill:#515352;}</style></defs><title>Client-Logos</title><path class="cls-1" d="M112.58,57.22v.7h-6.12v4.7h5.09v.68h-5.09v4.84h6.13l0,.7h-7V57.22Z"/><path class="cls-1" d="M116.58,64.66l-2.85-4h.75a.26.26,0,0,1,.17,0,.5.5,0,0,1,.1.12l2.4,3.46a.92.92,0,0,1,.13-.29l2.24-3.16a.6.6,0,0,1,.11-.12.22.22,0,0,1,.15,0h.71l-2.85,3.95,3,4.22h-.75a.24.24,0,0,1-.18-.07l-.11-.14L117.08,65a.91.91,0,0,1-.12.29l-2.36,3.33-.12.14a.21.21,0,0,1-.16.07h-.71Z"/><path class="cls-1" d="M125,60.54a3.4,3.4,0,0,1,1.28.24,2.9,2.9,0,0,1,1,.69,3.27,3.27,0,0,1,.69,1.12,4.32,4.32,0,0,1,.25,1.53.44.44,0,0,1,0,.25.19.19,0,0,1-.16.07h-5.94v.16a5.54,5.54,0,0,0,.21,1.62,3.31,3.31,0,0,0,.61,1.17,2.5,2.5,0,0,0,1,.71,3.15,3.15,0,0,0,1.25.24,3.74,3.74,0,0,0,1.07-.14,4,4,0,0,0,.76-.3,4.13,4.13,0,0,0,.49-.3.55.55,0,0,1,.26-.14.19.19,0,0,1,.16.08l.21.26a2.22,2.22,0,0,1-.52.46,3.71,3.71,0,0,1-.72.37,5.25,5.25,0,0,1-.85.24,4.7,4.7,0,0,1-.92.09,3.88,3.88,0,0,1-1.53-.29,3.23,3.23,0,0,1-1.18-.85,3.87,3.87,0,0,1-.76-1.37,5.9,5.9,0,0,1-.27-1.85,5,5,0,0,1,.25-1.62,3.71,3.71,0,0,1,.72-1.28,3.3,3.3,0,0,1,1.16-.84A3.81,3.81,0,0,1,125,60.54Zm0,.58a3.08,3.08,0,0,0-1.13.2,2.48,2.48,0,0,0-.87.57,2.89,2.89,0,0,0-.59.89,4,4,0,0,0-.3,1.16h5.42a3.52,3.52,0,0,0-.18-1.18,2.5,2.5,0,0,0-.52-.88,2.28,2.28,0,0,0-.8-.55A2.64,2.64,0,0,0,125,61.12Z"/><path class="cls-1" d="M135.68,61.76l-.08.07a.16.16,0,0,1-.1,0,.41.41,0,0,1-.22-.11,2.78,2.78,0,0,0-.38-.24,3.25,3.25,0,0,0-.6-.24,3.33,3.33,0,0,0-2.12.14,2.53,2.53,0,0,0-.92.72,3.21,3.21,0,0,0-.57,1.13,5.36,5.36,0,0,0-.19,1.49,5.28,5.28,0,0,0,.2,1.53,3.25,3.25,0,0,0,.57,1.12,2.43,2.43,0,0,0,.9.69,2.79,2.79,0,0,0,1.17.24,3,3,0,0,0,1-.14,3.21,3.21,0,0,0,.66-.3,2.73,2.73,0,0,0,.41-.3.41.41,0,0,1,.25-.14.2.2,0,0,1,.16.08l.21.26a2.38,2.38,0,0,1-.48.46,3.21,3.21,0,0,1-.65.37,4,4,0,0,1-.78.24,4.39,4.39,0,0,1-.88.09,3.5,3.5,0,0,1-1.42-.28,3.09,3.09,0,0,1-1.11-.82,3.84,3.84,0,0,1-.72-1.32,6.13,6.13,0,0,1,0-3.48,3.81,3.81,0,0,1,.72-1.33,3.26,3.26,0,0,1,1.16-.87,3.8,3.8,0,0,1,1.57-.31,3.67,3.67,0,0,1,1.41.25,3.48,3.48,0,0,1,1.08.69Z"/><path class="cls-1" d="M138.47,60.67v5.22a2.8,2.8,0,0,0,.53,1.8,1.93,1.93,0,0,0,1.6.65,2.88,2.88,0,0,0,1.49-.41,4.32,4.32,0,0,0,1.24-1.13V60.67h.79v8.17h-.44a.22.22,0,0,1-.24-.21l-.07-1.22a4.63,4.63,0,0,1-1.31,1.13,3.26,3.26,0,0,1-1.65.43,3.06,3.06,0,0,1-1.19-.21,2.18,2.18,0,0,1-.85-.62,2.72,2.72,0,0,1-.51-1,4.4,4.4,0,0,1-.17-1.28V60.67Z"/><path class="cls-1" d="M153.41,60.93v7.92h-.79V61.51h-4.73v5.54a1.73,1.73,0,0,0,.09.58,1.08,1.08,0,0,0,.24.4.93.93,0,0,0,.36.23,1.3,1.3,0,0,0,.44.07,1.35,1.35,0,0,0,.51-.09,2.1,2.1,0,0,0,.37-.19l.25-.19a.28.28,0,0,1,.16-.09.18.18,0,0,1,.13.08l.21.34a2.28,2.28,0,0,1-.79.55,2.47,2.47,0,0,1-1,.21,1.76,1.76,0,0,1-1.29-.46,1.93,1.93,0,0,1-.46-1.42V61.51h-1.17a.22.22,0,0,1-.15,0,.17.17,0,0,1-.06-.14V61l1.4-.1.2-2.92a.3.3,0,0,1,.07-.13.17.17,0,0,1,.14-.06h.37v3.12Zm.36-3.17a.62.62,0,0,1-.06.28.78.78,0,0,1-.16.23.79.79,0,0,1-.23.16.7.7,0,0,1-.56,0,.73.73,0,0,1-.23-.16.76.76,0,0,1-.16-.23.66.66,0,0,1-.06-.28.72.72,0,0,1,.06-.28.73.73,0,0,1,.39-.39.7.7,0,0,1,.56,0,.79.79,0,0,1,.23.16.75.75,0,0,1,.16.23A.68.68,0,0,1,153.77,57.76Z"/><path class="cls-1" d="M159.14,68.84h-.69L155,60.67h.62a.29.29,0,0,1,.19.06.3.3,0,0,1,.1.14l2.7,6.45a5.7,5.7,0,0,1,.2.71,4.91,4.91,0,0,1,.21-.71l2.71-6.45a.36.36,0,0,1,.11-.14.27.27,0,0,1,.17-.05h.59Z"/><path class="cls-1" d="M167.1,60.54a3.4,3.4,0,0,1,1.28.24,2.9,2.9,0,0,1,1,.69,3.27,3.27,0,0,1,.69,1.12,4.32,4.32,0,0,1,.25,1.53.44.44,0,0,1,0,.25.19.19,0,0,1-.16.07h-5.94v.16a5.54,5.54,0,0,0,.21,1.62,3.31,3.31,0,0,0,.61,1.17,2.5,2.5,0,0,0,1,.71,3.15,3.15,0,0,0,1.25.24,3.74,3.74,0,0,0,1.07-.14,4,4,0,0,0,.76-.3,4.13,4.13,0,0,0,.49-.3.55.55,0,0,1,.26-.14.19.19,0,0,1,.16.08l.21.26a2.22,2.22,0,0,1-.52.46,3.71,3.71,0,0,1-.72.37,5.25,5.25,0,0,1-.85.24,4.7,4.7,0,0,1-.92.09,3.88,3.88,0,0,1-1.53-.29,3.23,3.23,0,0,1-1.18-.85,3.87,3.87,0,0,1-.76-1.37,5.9,5.9,0,0,1-.27-1.85,5,5,0,0,1,.25-1.62,3.71,3.71,0,0,1,.72-1.28,3.3,3.3,0,0,1,1.16-.84A3.81,3.81,0,0,1,167.1,60.54Zm0,.58a3.08,3.08,0,0,0-1.13.2,2.48,2.48,0,0,0-.87.57,2.89,2.89,0,0,0-.59.89,4,4,0,0,0-.3,1.16h5.42a3.52,3.52,0,0,0-.18-1.18,2.5,2.5,0,0,0-.52-.88,2.28,2.28,0,0,0-.8-.55A2.64,2.64,0,0,0,167.11,61.12Z"/><path class="cls-1" d="M185.35,66.89a.19.19,0,0,1,.14.06l.33.35A5.54,5.54,0,0,1,185,68a4.79,4.79,0,0,1-.93.53,5.47,5.47,0,0,1-1.11.34,6.89,6.89,0,0,1-1.33.12,5.66,5.66,0,0,1-2.21-.42,5,5,0,0,1-1.73-1.2,5.42,5.42,0,0,1-1.12-1.88,7.14,7.14,0,0,1-.4-2.45,6.82,6.82,0,0,1,.41-2.41,5.55,5.55,0,0,1,1.15-1.88,5.1,5.1,0,0,1,1.77-1.22,5.89,5.89,0,0,1,2.28-.43,5.62,5.62,0,0,1,2.11.37,5.68,5.68,0,0,1,1.68,1l-.25.37a.23.23,0,0,1-.21.1.66.66,0,0,1-.32-.18,4.24,4.24,0,0,0-.62-.4,5.24,5.24,0,0,0-1-.4,4.83,4.83,0,0,0-1.41-.18,5,5,0,0,0-1.93.36,4.25,4.25,0,0,0-1.5,1,4.77,4.77,0,0,0-1,1.64,6.92,6.92,0,0,0,0,4.38,4.8,4.8,0,0,0,1,1.64,4.23,4.23,0,0,0,1.47,1,4.69,4.69,0,0,0,1.84.36,6.79,6.79,0,0,0,1.11-.08,4.36,4.36,0,0,0,.9-.25,4.05,4.05,0,0,0,.76-.4,5.75,5.75,0,0,0,.7-.56l.08-.05Z"/><path class="cls-1" d="M190.62,60.54a3.93,3.93,0,0,1,1.57.3,3.21,3.21,0,0,1,1.17.85,3.77,3.77,0,0,1,.73,1.33,6.13,6.13,0,0,1,0,3.47,3.77,3.77,0,0,1-.73,1.32,3.17,3.17,0,0,1-1.17.85,4.33,4.33,0,0,1-3.14,0,3.2,3.2,0,0,1-1.17-.85,3.73,3.73,0,0,1-.73-1.32,6.13,6.13,0,0,1,0-3.47,3.73,3.73,0,0,1,.73-1.33,3.24,3.24,0,0,1,1.17-.85A3.93,3.93,0,0,1,190.62,60.54Zm0,7.79a3,3,0,0,0,1.28-.25,2.42,2.42,0,0,0,.91-.72,3.18,3.18,0,0,0,.55-1.13,6.16,6.16,0,0,0,0-3,3.22,3.22,0,0,0-.55-1.14,2.44,2.44,0,0,0-.91-.73,3.33,3.33,0,0,0-2.55,0,2.44,2.44,0,0,0-.91.73,3.26,3.26,0,0,0-.55,1.14,6,6,0,0,0,0,3,3.22,3.22,0,0,0,.55,1.13,2.42,2.42,0,0,0,.91.72A3,3,0,0,0,190.62,68.33Z"/><path class="cls-1" d="M201.41,68.84a.28.28,0,0,1-.3-.23l-.11-1a8.6,8.6,0,0,1-.67.59,4,4,0,0,1-.69.44,3.4,3.4,0,0,1-.78.28,4.18,4.18,0,0,1-.92.09,2.71,2.71,0,0,1-.81-.12,2,2,0,0,1-.7-.38,1.83,1.83,0,0,1-.49-.65,2.26,2.26,0,0,1-.18-1,1.7,1.7,0,0,1,.3-1,2.42,2.42,0,0,1,.93-.77,6.16,6.16,0,0,1,1.62-.53,14.11,14.11,0,0,1,2.38-.23v-.85a2.74,2.74,0,0,0-.49-1.74,1.74,1.74,0,0,0-1.45-.61,2.74,2.74,0,0,0-1,.16,3.54,3.54,0,0,0-.7.36,4.47,4.47,0,0,0-.47.36.51.51,0,0,1-.3.16.25.25,0,0,1-.15,0,.37.37,0,0,1-.1-.11l-.14-.24a4.75,4.75,0,0,1,1.35-1,3.76,3.76,0,0,1,1.6-.33,2.92,2.92,0,0,1,1.15.21,2.12,2.12,0,0,1,.82.6,2.61,2.61,0,0,1,.49.94,4.34,4.34,0,0,1,.16,1.24v5.32Zm-3.28-.44a3.51,3.51,0,0,0,.87-.1,3.26,3.26,0,0,0,.74-.29,3.63,3.63,0,0,0,.64-.44q.3-.25.58-.55V64.9a14.62,14.62,0,0,0-2,.18,5.78,5.78,0,0,0-1.39.39,2,2,0,0,0-.8.59,1.25,1.25,0,0,0-.26.78,1.71,1.71,0,0,0,.14.71A1.39,1.39,0,0,0,197,68a1.44,1.44,0,0,0,.52.28A2.09,2.09,0,0,0,198.12,68.41Z"/><path class="cls-1" d="M209.66,61.76l-.08.07a.16.16,0,0,1-.1,0,.41.41,0,0,1-.22-.11,2.8,2.8,0,0,0-.38-.24,3.25,3.25,0,0,0-.59-.24,3.33,3.33,0,0,0-2.12.14,2.53,2.53,0,0,0-.92.72,3.21,3.21,0,0,0-.57,1.13,5.37,5.37,0,0,0-.19,1.49,5.27,5.27,0,0,0,.2,1.53,3.25,3.25,0,0,0,.57,1.12,2.43,2.43,0,0,0,.9.69,2.79,2.79,0,0,0,1.17.24,3,3,0,0,0,1-.14,3.2,3.2,0,0,0,.66-.3,2.75,2.75,0,0,0,.41-.3.41.41,0,0,1,.25-.14.2.2,0,0,1,.16.08l.21.26a2.38,2.38,0,0,1-.48.46,3.2,3.2,0,0,1-.65.37,4,4,0,0,1-.78.24,4.39,4.39,0,0,1-.88.09,3.5,3.5,0,0,1-1.42-.28,3.09,3.09,0,0,1-1.11-.82,3.84,3.84,0,0,1-.72-1.32,6.13,6.13,0,0,1,0-3.48,3.8,3.8,0,0,1,.72-1.33,3.26,3.26,0,0,1,1.16-.87,3.8,3.8,0,0,1,1.57-.31,3.67,3.67,0,0,1,1.41.25,3.48,3.48,0,0,1,1.08.69Z"/><path class="cls-1" d="M211.74,68.84V56.89h.79v5.16A4.53,4.53,0,0,1,213.82,61a3.25,3.25,0,0,1,1.63-.41,3.07,3.07,0,0,1,1.19.21,2.18,2.18,0,0,1,.85.62,2.73,2.73,0,0,1,.51,1,4.41,4.41,0,0,1,.17,1.28v5.22h-.79V63.62a2.8,2.8,0,0,0-.53-1.8,1.93,1.93,0,0,0-1.6-.65,2.89,2.89,0,0,0-1.49.41,4.23,4.23,0,0,0-1.23,1.13v6.14Z"/><path class="cls-1" d="M229,57.09a2.89,2.89,0,0,1,1,.19,2.82,2.82,0,0,1,.86.51,2.5,2.5,0,0,1,.58.74,2.07,2.07,0,0,1,.23.88l-.44.09a.2.2,0,0,1-.15,0,.3.3,0,0,1-.11-.16,2,2,0,0,0-.18-.5,2,2,0,0,0-.38-.53,2.11,2.11,0,0,0-.61-.41,2,2,0,0,0-.85-.17,2.52,2.52,0,0,0-.89.15,2,2,0,0,0-.69.43,1.94,1.94,0,0,0-.45.65,2.11,2.11,0,0,0-.16.83,2.6,2.6,0,0,0,.34,1.29,6.07,6.07,0,0,0,1.07,1.32L231.86,66a5.91,5.91,0,0,0,.59-1.23,5.84,5.84,0,0,0,.28-1.24.36.36,0,0,1,.07-.17.18.18,0,0,1,.15-.06h.45a5.31,5.31,0,0,1-.29,1.59,6.38,6.38,0,0,1-.78,1.56l2.45,2.4H234a.74.74,0,0,1-.24,0,.65.65,0,0,1-.22-.15L231.89,67a6.52,6.52,0,0,1-.81.79,5.18,5.18,0,0,1-1,.62,5.43,5.43,0,0,1-1.1.41,5,5,0,0,1-1.24.15,3.73,3.73,0,0,1-1.22-.21,3.3,3.3,0,0,1-1.07-.6,3.06,3.06,0,0,1-.76-1,2.89,2.89,0,0,1-.29-1.32,3,3,0,0,1,.21-1.13,3.66,3.66,0,0,1,.58-1,4.33,4.33,0,0,1,.88-.8,5,5,0,0,1,1.1-.57,5.44,5.44,0,0,1-.87-1.28,3.08,3.08,0,0,1-.29-1.33,2.67,2.67,0,0,1,.21-1.06,2.5,2.5,0,0,1,.6-.85,2.79,2.79,0,0,1,.92-.57A3.35,3.35,0,0,1,229,57.09Zm-1.08,11.24A4.38,4.38,0,0,0,229,68.2a4.46,4.46,0,0,0,1-.37,4.37,4.37,0,0,0,.82-.55,5.44,5.44,0,0,0,.69-.71l-3.77-3.7-.09-.09a4.9,4.9,0,0,0-1,.55,3.68,3.68,0,0,0-.74.71,3.08,3.08,0,0,0-.47.84,2.71,2.71,0,0,0-.16.94,2.36,2.36,0,0,0,.24,1.1,2.47,2.47,0,0,0,.63.78,2.66,2.66,0,0,0,.86.47A3,3,0,0,0,227.89,68.33Z"/><path class="cls-1" d="M114.58,84.87h-.85V79.3h-7.27v5.57h-.85V73.25h.85v5.42h7.27V73.25h.85Z"/><path class="cls-1" d="M118.69,79.61v5.26h-.85V73.25h3a4.84,4.84,0,0,1,3,.78,2.71,2.71,0,0,1,1,2.28,3.07,3.07,0,0,1-.23,1.22,2.9,2.9,0,0,1-.66,1,3.52,3.52,0,0,1-1,.68,4.67,4.67,0,0,1-1.37.35,1.33,1.33,0,0,1,.35.33l4,5h-.72a.53.53,0,0,1-.23,0,.46.46,0,0,1-.18-.17L121,79.94l-.14-.16a.53.53,0,0,0-.16-.1l-.21-.05-.29,0Zm0-.62h2a4.79,4.79,0,0,0,1.38-.18,3,3,0,0,0,1-.53,2.29,2.29,0,0,0,.64-.83,2.59,2.59,0,0,0,.22-1.09,2.14,2.14,0,0,0-.81-1.84,3.93,3.93,0,0,0-2.36-.6h-2.13Z"/><path class="cls-1" d="M140.33,82.91a.19.19,0,0,1,.14.06l.33.35A5.54,5.54,0,0,1,140,84a4.8,4.8,0,0,1-.93.53,5.46,5.46,0,0,1-1.11.34,6.9,6.9,0,0,1-1.33.12,5.66,5.66,0,0,1-2.21-.42,5,5,0,0,1-1.73-1.2,5.42,5.42,0,0,1-1.12-1.88,7.14,7.14,0,0,1-.4-2.45,6.81,6.81,0,0,1,.41-2.41,5.54,5.54,0,0,1,1.15-1.88,5.1,5.1,0,0,1,1.77-1.22,5.88,5.88,0,0,1,2.28-.43,5.62,5.62,0,0,1,2.11.37,5.69,5.69,0,0,1,1.68,1l-.25.37a.23.23,0,0,1-.21.1.66.66,0,0,1-.32-.18,4.26,4.26,0,0,0-.62-.4,5.24,5.24,0,0,0-1-.4,4.83,4.83,0,0,0-1.41-.18,5,5,0,0,0-1.93.36,4.25,4.25,0,0,0-1.5,1,4.76,4.76,0,0,0-1,1.64,6.92,6.92,0,0,0,0,4.38,4.8,4.8,0,0,0,1,1.64,4.24,4.24,0,0,0,1.47,1,4.69,4.69,0,0,0,1.84.36,6.79,6.79,0,0,0,1.11-.08,4.36,4.36,0,0,0,.9-.25,4,4,0,0,0,.76-.4,5.76,5.76,0,0,0,.7-.56l.08-.05Z"/><path class="cls-1" d="M145.59,76.57a3.93,3.93,0,0,1,1.57.3,3.21,3.21,0,0,1,1.17.85,3.77,3.77,0,0,1,.73,1.33,6.13,6.13,0,0,1,0,3.47,3.77,3.77,0,0,1-.73,1.32,3.17,3.17,0,0,1-1.17.85,4.33,4.33,0,0,1-3.14,0,3.2,3.2,0,0,1-1.17-.85,3.73,3.73,0,0,1-.73-1.32,6.13,6.13,0,0,1,0-3.47,3.73,3.73,0,0,1,.73-1.33,3.24,3.24,0,0,1,1.17-.85A3.93,3.93,0,0,1,145.59,76.57Zm0,7.79a3,3,0,0,0,1.28-.25,2.42,2.42,0,0,0,.91-.72,3.18,3.18,0,0,0,.55-1.13,6.15,6.15,0,0,0,0-3,3.21,3.21,0,0,0-.55-1.14,2.44,2.44,0,0,0-.91-.73,3.33,3.33,0,0,0-2.55,0,2.44,2.44,0,0,0-.91.73,3.26,3.26,0,0,0-.55,1.14,6,6,0,0,0,0,3,3.22,3.22,0,0,0,.55,1.13,2.42,2.42,0,0,0,.91.72A3,3,0,0,0,145.59,84.36Z"/><path class="cls-1" d="M151.36,84.87V76.7h.44a.22.22,0,0,1,.24.21l.07,1.23A4.6,4.6,0,0,1,153.41,77a3.26,3.26,0,0,1,1.66-.43,3.07,3.07,0,0,1,1.19.21,2.18,2.18,0,0,1,.85.62,2.72,2.72,0,0,1,.51,1,4.4,4.4,0,0,1,.17,1.28v5.22H157V79.65a2.8,2.8,0,0,0-.53-1.8,1.93,1.93,0,0,0-1.6-.65,2.89,2.89,0,0,0-1.49.41,4.23,4.23,0,0,0-1.23,1.13v6.14Z"/><path class="cls-1" d="M164.72,77.71a.21.21,0,0,1-.19.12.43.43,0,0,1-.23-.1,3.45,3.45,0,0,0-.37-.23,3,3,0,0,0-.58-.23,3,3,0,0,0-.84-.1,2.44,2.44,0,0,0-.81.13,2,2,0,0,0-.62.34,1.5,1.5,0,0,0-.4.5,1.33,1.33,0,0,0-.14.59,1,1,0,0,0,.2.64,1.71,1.71,0,0,0,.51.44,3.79,3.79,0,0,0,.73.31l.83.26q.42.13.83.29a3,3,0,0,1,.73.4,1.91,1.91,0,0,1,.51.58,1.67,1.67,0,0,1,.2.84,2.59,2.59,0,0,1-.19,1,2.22,2.22,0,0,1-.55.8,2.68,2.68,0,0,1-.9.53,3.52,3.52,0,0,1-1.22.2,3.67,3.67,0,0,1-1.49-.28,4.19,4.19,0,0,1-1.12-.72l.18-.28a.29.29,0,0,1,.09-.1.27.27,0,0,1,.14,0,.44.44,0,0,1,.26.13,2.9,2.9,0,0,0,.41.28,3.46,3.46,0,0,0,.63.28,2.8,2.8,0,0,0,.92.13,2.65,2.65,0,0,0,.91-.14,1.9,1.9,0,0,0,.66-.39,1.63,1.63,0,0,0,.4-.58,1.85,1.85,0,0,0,.14-.7,1.13,1.13,0,0,0-.2-.68,1.7,1.7,0,0,0-.52-.46,3.61,3.61,0,0,0-.73-.32l-.83-.26q-.43-.13-.83-.29a3,3,0,0,1-.73-.39,1.9,1.9,0,0,1-.52-.58,1.67,1.67,0,0,1-.2-.85,1.94,1.94,0,0,1,.19-.84,2.12,2.12,0,0,1,.54-.71,2.65,2.65,0,0,1,.85-.48,3.3,3.3,0,0,1,1.12-.18,3.82,3.82,0,0,1,1.33.21,3.12,3.12,0,0,1,1.06.66Z"/><path class="cls-1" d="M167.74,76.7v5.22a2.8,2.8,0,0,0,.53,1.8,1.93,1.93,0,0,0,1.6.65,2.88,2.88,0,0,0,1.49-.41,4.32,4.32,0,0,0,1.24-1.13V76.7h.79v8.17h-.44a.22.22,0,0,1-.24-.21l-.07-1.22a4.63,4.63,0,0,1-1.31,1.13,3.26,3.26,0,0,1-1.65.43,3.06,3.06,0,0,1-1.19-.21,2.19,2.19,0,0,1-.85-.62,2.73,2.73,0,0,1-.51-1,4.41,4.41,0,0,1-.17-1.28V76.7Z"/><path class="cls-1" d="M176.76,72.92V84.87H176V72.92Z"/><path class="cls-1" d="M181.6,85a1.76,1.76,0,0,1-1.29-.46,1.93,1.93,0,0,1-.46-1.42V77.54h-1.17a.22.22,0,0,1-.15,0,.17.17,0,0,1-.06-.14V77l1.4-.1.2-2.92a.3.3,0,0,1,.07-.13.17.17,0,0,1,.14-.06h.37V77h2.58v.58h-2.58v5.54a1.73,1.73,0,0,0,.09.58,1.08,1.08,0,0,0,.24.4.93.93,0,0,0,.36.23,1.3,1.3,0,0,0,.44.07,1.35,1.35,0,0,0,.51-.09,2.1,2.1,0,0,0,.37-.19l.25-.19a.28.28,0,0,1,.16-.09.18.18,0,0,1,.13.08l.21.34a2.28,2.28,0,0,1-.79.55A2.46,2.46,0,0,1,181.6,85Z"/><path class="cls-1" d="M189.85,84.87a.28.28,0,0,1-.3-.23l-.12-1a8.6,8.6,0,0,1-.67.59,4,4,0,0,1-.69.44,3.41,3.41,0,0,1-.78.28,4.18,4.18,0,0,1-.92.09,2.71,2.71,0,0,1-.81-.12,2,2,0,0,1-.7-.38,1.83,1.83,0,0,1-.49-.65,2.26,2.26,0,0,1-.18-1,1.7,1.7,0,0,1,.3-1,2.42,2.42,0,0,1,.93-.77,6.17,6.17,0,0,1,1.62-.53,14.12,14.12,0,0,1,2.38-.23v-.85a2.74,2.74,0,0,0-.49-1.74,1.74,1.74,0,0,0-1.45-.61,2.74,2.74,0,0,0-1,.16,3.56,3.56,0,0,0-.7.36,4.42,4.42,0,0,0-.47.36.51.51,0,0,1-.3.16.25.25,0,0,1-.15,0,.37.37,0,0,1-.1-.11l-.14-.24a4.75,4.75,0,0,1,1.35-1,3.76,3.76,0,0,1,1.6-.33,2.92,2.92,0,0,1,1.15.21,2.13,2.13,0,0,1,.82.6,2.62,2.62,0,0,1,.49.94,4.34,4.34,0,0,1,.16,1.24v5.32Zm-3.28-.44a3.52,3.52,0,0,0,.87-.1,3.25,3.25,0,0,0,.74-.29,3.61,3.61,0,0,0,.64-.44q.3-.25.58-.55V80.93a14.61,14.61,0,0,0-2,.18,5.78,5.78,0,0,0-1.39.39,2,2,0,0,0-.8.59,1.25,1.25,0,0,0-.26.78,1.71,1.71,0,0,0,.14.71,1.39,1.39,0,0,0,.36.49,1.44,1.44,0,0,0,.52.28A2.08,2.08,0,0,0,186.57,84.43Z"/><path class="cls-1" d="M192.61,84.87V76.7H193a.22.22,0,0,1,.24.21l.07,1.23A4.61,4.61,0,0,1,194.66,77a3.26,3.26,0,0,1,1.66-.43,3.07,3.07,0,0,1,1.19.21,2.18,2.18,0,0,1,.85.62,2.72,2.72,0,0,1,.51,1,4.39,4.39,0,0,1,.17,1.28v5.22h-.79V79.65a2.8,2.8,0,0,0-.53-1.8,1.93,1.93,0,0,0-1.6-.65,2.89,2.89,0,0,0-1.49.41,4.23,4.23,0,0,0-1.23,1.13v6.14Z"/><path class="cls-1" d="M203.61,85a1.76,1.76,0,0,1-1.29-.46,1.92,1.92,0,0,1-.46-1.42V77.54h-1.17a.22.22,0,0,1-.15,0,.17.17,0,0,1-.06-.14V77l1.4-.1.2-2.92a.3.3,0,0,1,.07-.13.17.17,0,0,1,.14-.06h.37V77h2.58v.58h-2.58v5.54a1.73,1.73,0,0,0,.09.58,1.07,1.07,0,0,0,.24.4.93.93,0,0,0,.36.23,1.3,1.3,0,0,0,.44.07,1.35,1.35,0,0,0,.51-.09,2.1,2.1,0,0,0,.37-.19l.25-.19a.28.28,0,0,1,.16-.09.18.18,0,0,1,.13.08l.21.34a2.28,2.28,0,0,1-.79.55A2.47,2.47,0,0,1,203.61,85Z"/><path class="cls-1" d="M111.14,42.61H123v4.56H105.61V17.48h5.52Z"/><path class="cls-1" d="M131.81,20a2.89,2.89,0,0,1-.27,1.23,3.35,3.35,0,0,1-1.74,1.69,3.18,3.18,0,0,1-1.27.26,3.05,3.05,0,0,1-1.24-.26,3.28,3.28,0,0,1-1-.69,3.32,3.32,0,0,1-.69-1,3,3,0,0,1-.26-1.23,3.18,3.18,0,0,1,.26-1.27,3.25,3.25,0,0,1,.69-1,3.3,3.3,0,0,1,1-.69,3.06,3.06,0,0,1,1.24-.26,3.19,3.19,0,0,1,1.27.26,3.4,3.4,0,0,1,1,.69,3.31,3.31,0,0,1,.71,1A3.08,3.08,0,0,1,131.81,20Zm-.7,6.14V47.17H126V26.1Z"/><path class="cls-1" d="M151.12,28.2a3.07,3.07,0,0,1-.18,1,2.4,2.4,0,0,1-.49.84l-10,13.18h10.39v3.9H134.56V45.05a2.64,2.64,0,0,1,.16-.83,3.21,3.21,0,0,1,.49-.91L145.31,30H135.15V26.1h16Z"/><path class="cls-1" d="M185.45,40.17a1.1,1.1,0,0,1,.8.35l2.18,2.36A12,12,0,0,1,184,46.3a15.31,15.31,0,0,1-6.33,1.19,15,15,0,0,1-5.94-1.13,13.09,13.09,0,0,1-4.51-3.14,13.75,13.75,0,0,1-2.86-4.8,18,18,0,0,1-1-6.1,17,17,0,0,1,1.07-6.13,14.08,14.08,0,0,1,3-4.79A13.61,13.61,0,0,1,172,18.27a15.36,15.36,0,0,1,6-1.12,14.63,14.63,0,0,1,5.76,1.07A13.73,13.73,0,0,1,188,21l-1.85,2.57a1.68,1.68,0,0,1-.42.43,1.19,1.19,0,0,1-.71.18,1.35,1.35,0,0,1-.64-.17q-.33-.17-.72-.43l-.9-.56a7.45,7.45,0,0,0-1.19-.56A9.7,9.7,0,0,0,180,22a10.85,10.85,0,0,0-2.06-.17,9.15,9.15,0,0,0-3.64.71,7.91,7.91,0,0,0-2.84,2.05,9.46,9.46,0,0,0-1.85,3.28,13.76,13.76,0,0,0-.66,4.42,13,13,0,0,0,.71,4.45,9.79,9.79,0,0,0,1.92,3.28,8.19,8.19,0,0,0,2.85,2,8.82,8.82,0,0,0,3.53.71,15.37,15.37,0,0,0,2-.12,8.64,8.64,0,0,0,1.68-.39,7.48,7.48,0,0,0,1.46-.69,9.09,9.09,0,0,0,1.37-1,2,2,0,0,1,.43-.3A1,1,0,0,1,185.45,40.17Z"/><path class="cls-1" d="M196.26,16.66v30.5h-5.07V16.66Z"/><path class="cls-1" d="M210,25.78a10.31,10.31,0,0,1,3.67.64,8,8,0,0,1,2.89,1.86,8.62,8.62,0,0,1,1.9,3,11.17,11.17,0,0,1,.69,4.05,3.29,3.29,0,0,1-.25,1.55,1,1,0,0,1-.94.4h-13a10,10,0,0,0,.57,2.8,5.72,5.72,0,0,0,1.19,2,4.67,4.67,0,0,0,1.76,1.15,6.37,6.37,0,0,0,2.25.38,7,7,0,0,0,2.12-.29,10,10,0,0,0,1.56-.64l1.17-.64a2,2,0,0,1,1-.29,1,1,0,0,1,.94.47L218.95,44a8.45,8.45,0,0,1-1.89,1.65,10.56,10.56,0,0,1-2.19,1.07,11.94,11.94,0,0,1-2.32.56,16.62,16.62,0,0,1-2.29.16,11.25,11.25,0,0,1-4.09-.73,9.13,9.13,0,0,1-3.28-2.16,10.11,10.11,0,0,1-2.2-3.53,13.66,13.66,0,0,1-.8-4.88,11.66,11.66,0,0,1,.7-4.05,9.74,9.74,0,0,1,2-3.3,9.42,9.42,0,0,1,3.18-2.23A10.48,10.48,0,0,1,210,25.78Zm.1,3.63a4.69,4.69,0,0,0-3.47,1.25,6.18,6.18,0,0,0-1.6,3.55h9.57a6.1,6.1,0,0,0-.28-1.86,4.42,4.42,0,0,0-.83-1.53,3.87,3.87,0,0,0-1.41-1A4.83,4.83,0,0,0,210.12,29.41Z"/><path class="cls-1" d="M230.38,25.73a11.1,11.1,0,0,1,2.54.28,9.07,9.07,0,0,1,2.19.81h6.06v1.89q0,.9-1.09,1.11l-1.89.35a6.56,6.56,0,0,1,.32,1.13,6.74,6.74,0,0,1,.11,1.25,6.17,6.17,0,0,1-2.36,5,8.13,8.13,0,0,1-2.62,1.37,10.63,10.63,0,0,1-3.25.48,11.78,11.78,0,0,1-2.32-.23q-1,.6-1,1.33a1,1,0,0,0,.59.93,4.78,4.78,0,0,0,1.55.42,21.76,21.76,0,0,0,2.2.15q1.23,0,2.53.13a20.21,20.21,0,0,1,2.53.36,7.43,7.43,0,0,1,2.2.81,4.31,4.31,0,0,1,1.55,1.51,4.64,4.64,0,0,1,.58,2.45A5.78,5.78,0,0,1,240.1,50a7.29,7.29,0,0,1-2,2.34,10.4,10.4,0,0,1-3.2,1.65,13.79,13.79,0,0,1-4.32.63,16.5,16.5,0,0,1-4.15-.46,9.87,9.87,0,0,1-2.94-1.23,5.31,5.31,0,0,1-1.74-1.78,4.16,4.16,0,0,1-.57-2.09,3.58,3.58,0,0,1,.89-2.46,6.15,6.15,0,0,1,2.43-1.6,3.57,3.57,0,0,1-1.31-1.15,3.28,3.28,0,0,1-.49-1.89,3.14,3.14,0,0,1,.16-1,3.9,3.9,0,0,1,.5-1,4.75,4.75,0,0,1,.86-.93,6.17,6.17,0,0,1,1.22-.79,6.64,6.64,0,0,1-2.51-2.3,6.13,6.13,0,0,1-.91-3.37,6.18,6.18,0,0,1,2.37-5A8,8,0,0,1,227,26.21,11.26,11.26,0,0,1,230.38,25.73Zm5.73,22.38a1.37,1.37,0,0,0-.37-1,2.59,2.59,0,0,0-1-.61,7,7,0,0,0-1.49-.33q-.85-.1-1.81-.15l-2-.09q-1,0-2-.16a4.75,4.75,0,0,0-1.36,1.11,2.26,2.26,0,0,0-.52,1.48,2,2,0,0,0,.28,1,2.32,2.32,0,0,0,.88.83,5.25,5.25,0,0,0,1.57.54,12.15,12.15,0,0,0,2.36.19,12,12,0,0,0,2.44-.22,5.88,5.88,0,0,0,1.69-.59,2.57,2.57,0,0,0,1-.9A2.21,2.21,0,0,0,236.11,48.11Zm-5.73-12a4.74,4.74,0,0,0,1.64-.26,3.22,3.22,0,0,0,1.16-.71,2.92,2.92,0,0,0,.7-1.09,4,4,0,0,0,.24-1.4,3.3,3.3,0,0,0-.93-2.47,4.75,4.75,0,0,0-5.6,0,3.3,3.3,0,0,0-.93,2.47,3.92,3.92,0,0,0,.24,1.38,3,3,0,0,0,.7,1.1,3.13,3.13,0,0,0,1.17.72A4.77,4.77,0,0,0,230.38,36.12Z"/><path class="cls-1" d="M251.77,25.73a11.1,11.1,0,0,1,2.54.28,9.07,9.07,0,0,1,2.19.81h6.06v1.89q0,.9-1.09,1.11l-1.89.35a6.56,6.56,0,0,1,.32,1.13,6.74,6.74,0,0,1,.11,1.25,6.17,6.17,0,0,1-2.36,5A8.13,8.13,0,0,1,255,38.88a10.63,10.63,0,0,1-3.25.48,11.78,11.78,0,0,1-2.32-.23q-1,.6-1,1.33a1,1,0,0,0,.58.93,4.79,4.79,0,0,0,1.55.42,21.76,21.76,0,0,0,2.2.15q1.23,0,2.53.13a20.21,20.21,0,0,1,2.53.36,7.43,7.43,0,0,1,2.2.81,4.31,4.31,0,0,1,1.55,1.51,4.64,4.64,0,0,1,.58,2.45,5.78,5.78,0,0,1-.69,2.71,7.29,7.29,0,0,1-2,2.34A10.4,10.4,0,0,1,256.3,54a13.79,13.79,0,0,1-4.32.63,16.5,16.5,0,0,1-4.15-.46,9.87,9.87,0,0,1-2.94-1.23,5.32,5.32,0,0,1-1.74-1.78,4.16,4.16,0,0,1-.57-2.09,3.58,3.58,0,0,1,.89-2.46,6.15,6.15,0,0,1,2.43-1.6,3.58,3.58,0,0,1-1.31-1.15,3.28,3.28,0,0,1-.49-1.89,3.14,3.14,0,0,1,.16-1,3.89,3.89,0,0,1,.5-1,4.75,4.75,0,0,1,.86-.93,6.17,6.17,0,0,1,1.22-.79,6.65,6.65,0,0,1-2.51-2.3,6.14,6.14,0,0,1-.91-3.37,6.18,6.18,0,0,1,2.37-5,8,8,0,0,1,2.65-1.37A11.26,11.26,0,0,1,251.77,25.73Zm5.73,22.38a1.37,1.37,0,0,0-.37-1,2.59,2.59,0,0,0-1-.61,7,7,0,0,0-1.49-.33q-.85-.1-1.81-.15l-2-.09q-1,0-2-.16a4.76,4.76,0,0,0-1.37,1.11,2.26,2.26,0,0,0-.52,1.48,2,2,0,0,0,.28,1,2.31,2.31,0,0,0,.88.83,5.25,5.25,0,0,0,1.57.54,12.15,12.15,0,0,0,2.36.19,12,12,0,0,0,2.44-.22,5.88,5.88,0,0,0,1.69-.59,2.57,2.57,0,0,0,1-.9A2.21,2.21,0,0,0,257.5,48.11Zm-5.73-12a4.74,4.74,0,0,0,1.64-.26,3.22,3.22,0,0,0,1.16-.71,2.92,2.92,0,0,0,.7-1.09,4,4,0,0,0,.24-1.4,3.3,3.3,0,0,0-.93-2.47,4.75,4.75,0,0,0-5.6,0,3.3,3.3,0,0,0-.93,2.47,3.92,3.92,0,0,0,.24,1.38,3,3,0,0,0,.7,1.1,3.13,3.13,0,0,0,1.17.72A4.77,4.77,0,0,0,251.77,36.12Z"/><path class="cls-1" d="M99.54,18.28A23.11,23.11,0,0,0,69.49,34.94,24.22,24.22,0,0,0,62.55,22.6c.3.33.58.66.85,1-.28-.34-.56-.68-.85-1a23.1,23.1,0,0,0-23.67-6.66c-.48.14-1,.3-1.43.47,0,0,0,.1,0,.15q0,.38,0,.76a31.42,31.42,0,0,0,27.8,30.46c.18-.35.36-.7.53-1.05a23.15,23.15,0,0,0,0-19.48,23.07,23.07,0,0,1-5.35,28.39,31.27,31.27,0,0,0,3.33.73A24.25,24.25,0,0,0,68.74,48h.16c.46,0,.91,0,1.37,0A31.45,31.45,0,0,0,100,21q.17-1.19.24-2.41ZM65.17,26.11c.23.38.45.76.66,1.15C65.62,26.87,65.4,26.49,65.17,26.11ZM63.64,23.9q.3.38.59.78C64,24.42,63.84,24.16,63.64,23.9Zm.81,1.1q.29.42.56.86Q64.74,25.42,64.44,25Z"/></svg>