<svg id="Layer_1" data-name="Layer 1" xmlns="http://www.w3.org/2000/svg" viewBox="0 0 300 100"><defs><style>.cls-1,.cls-2{fill:#515352;}.cls-1{opacity:0.6;}</style></defs><title>Client-Logos</title><path class="cls-1" d="M169.51,71.51a.2.2,0,0,1,.22-.22h.12a.2.2,0,0,1,.22.22V83.19a.2.2,0,0,1-.22.22h-.12a.2.2,0,0,1-.22-.22Z"/><path class="cls-1" d="M214.63,71.51a.2.2,0,0,1,.22-.22H215a.2.2,0,0,1,.22.22V83.19a.2.2,0,0,1-.22.22h-.12a.2.2,0,0,1-.22-.22Z"/><path class="cls-2" d="M130,27.37A2.1,2.1,0,0,1,132.31,25h2.48a2.1,2.1,0,0,1,2.31,2.37V55.48c0,2.82,1.18,3.32,2.25,3.44a1.84,1.84,0,0,1,1.75,2v1.92a2.13,2.13,0,0,1-2.37,2.42c-3.83,0-8.73-1-8.73-9.24Z"/><path class="cls-2" d="M159.61,35.59c8.73,0,15.83,6.25,15.83,15s-7.1,15-15.83,15-15.78-6.2-15.78-15S150.88,35.59,159.61,35.59Zm0,24c4.68,0,8.56-3.61,8.56-9a8.59,8.59,0,0,0-8.56-9c-4.68,0-8.51,3.66-8.51,9S154.94,59.6,159.61,59.6Z"/><path class="cls-2" d="M178.18,38.64a2.1,2.1,0,0,1,2.31-2.37h2.2A2.1,2.1,0,0,1,185,38.64v1.75a9.18,9.18,0,0,1-.11,1.3H185c1.41-2.82,4.9-6.09,9.41-6.09,4.34,0,7.21,2,8.4,5.92h.11a11.39,11.39,0,0,1,9.8-5.92c6,0,9.41,3.38,9.41,10.93V62.64A2.11,2.11,0,0,1,219.77,65h-2.42A2.09,2.09,0,0,1,215,62.64V47.88c0-3.27-.62-5.75-3.94-5.75-4.85,0-7.32,5-7.32,10V62.64A2.07,2.07,0,0,1,201.4,65h-2.48a2.11,2.11,0,0,1-2.37-2.37V47.88c0-3.1-.45-5.75-3.83-5.75-5.07,0-7.44,5.18-7.44,10V62.64A2.07,2.07,0,0,1,183,65h-2.48a2.07,2.07,0,0,1-2.31-2.37Z"/><path class="cls-2" d="M241.66,47.26h1.18v-.68c0-3.78-2.42-5.07-5.35-5.07a13,13,0,0,0-6,1.63c-1.41.62-2.48.39-3.16-1l-.56-1.07a2.1,2.1,0,0,1,.9-3.16,20.39,20.39,0,0,1,9.41-2.37C245.55,35.59,250,39.76,250,47V62.64A2.09,2.09,0,0,1,247.63,65h-1.92a2.07,2.07,0,0,1-2.31-2.37V61.51a5.62,5.62,0,0,1,.11-1.24h-.11a10.46,10.46,0,0,1-9,5.41c-5.24,0-9.52-3.38-9.52-8.62C224.87,48.67,235.24,47.26,241.66,47.26Zm-5.35,13c4,0,6.59-4.06,6.59-7.55V51.6h-1.18c-3.61,0-9.75.56-9.75,4.85C232,58.36,233.43,60.22,236.31,60.22Z"/><path class="cls-2" d="M110.45,15H59.55A9.55,9.55,0,0,0,50,24.55V75.45A9.55,9.55,0,0,0,59.55,85h50.91A9.55,9.55,0,0,0,120,75.45V24.55A9.55,9.55,0,0,0,110.45,15ZM85,60A10,10,0,1,1,95,50,10,10,0,0,1,85,60Zm25,10a5,5,0,1,1-10,0V50a15,15,0,0,0-30,0V70a5,5,0,1,1-10,0V50a25,25,0,0,1,50,0V70Z"/><path class="cls-2" d="M133.85,77.45h.36v-.2c0-1.22-.67-1.63-1.56-1.63a3,3,0,0,0-1.53.44.3.3,0,0,1-.43-.1l-.08-.13a.28.28,0,0,1,.09-.43,3.84,3.84,0,0,1,2-.55,2.15,2.15,0,0,1,2.35,2.42V81a.27.27,0,0,1-.3.31h-.2a.28.28,0,0,1-.31-.31v-.5a2.67,2.67,0,0,1,0-.48h0a2.35,2.35,0,0,1-2.13,1.44A1.94,1.94,0,0,1,130,79.62C130,77.56,132.64,77.45,133.85,77.45Zm-1.57,3.3a2.2,2.2,0,0,0,1.93-2.36v-.3h-.35c-1,0-3,0-3,1.46A1.26,1.26,0,0,0,132.28,80.75Z"/><path class="cls-2" d="M137.09,75.76h-.53a.27.27,0,0,1-.3-.3v-.1a.28.28,0,0,1,.3-.31h.54V73.57a.28.28,0,0,1,.31-.31h.23a.28.28,0,0,1,.3.31V75h1.28a.28.28,0,0,1,.31.31v.1a.28.28,0,0,1-.31.3h-1.28v3.16c0,1.46.89,1.63,1.38,1.66.25,0,.34.1.34.31v.16c0,.2-.1.3-.35.3A2.08,2.08,0,0,1,137.09,79Z"/><path class="cls-2" d="M141.11,75.76h-.53a.27.27,0,0,1-.3-.3v-.1a.28.28,0,0,1,.3-.31h.54V73.57a.28.28,0,0,1,.31-.31h.23a.28.28,0,0,1,.3.31V75h1.28a.28.28,0,0,1,.31.31v.1a.28.28,0,0,1-.31.3H142v3.16c0,1.46.89,1.63,1.38,1.66.25,0,.34.1.34.31v.16c0,.2-.1.3-.35.3A2.08,2.08,0,0,1,141.11,79Z"/><path class="cls-2" d="M144.88,75.31a.28.28,0,0,1,.31-.31h.23a.28.28,0,0,1,.3.31v.85a2.58,2.58,0,0,1-.05.5h0a2.25,2.25,0,0,1,2-1.71c.23,0,.33.1.33.3v.23a.31.31,0,0,1-.35.31c-1.33,0-2,1.52-2,2.84V81a.28.28,0,0,1-.3.31h-.24a.28.28,0,0,1-.31-.31Z"/><path class="cls-2" d="M152.38,77.45h.36v-.2c0-1.22-.67-1.63-1.56-1.63a3,3,0,0,0-1.53.44.3.3,0,0,1-.43-.1l-.08-.13a.28.28,0,0,1,.09-.43,3.84,3.84,0,0,1,2-.55,2.15,2.15,0,0,1,2.35,2.42V81a.27.27,0,0,1-.3.31h-.2a.28.28,0,0,1-.31-.31v-.5a2.7,2.7,0,0,1,0-.48h0a2.35,2.35,0,0,1-2.13,1.44,1.94,1.94,0,0,1-2.13-1.85C148.52,77.56,151.16,77.45,152.38,77.45Zm-1.57,3.3a2.2,2.2,0,0,0,1.93-2.36v-.3h-.35c-1,0-3,0-3,1.46A1.26,1.26,0,0,0,150.81,80.75Z"/><path class="cls-2" d="M158.33,74.85a3.32,3.32,0,0,1,2.1.72.27.27,0,0,1,0,.43l-.09.14c-.11.18-.25.18-.43.06a2.61,2.61,0,0,0-1.59-.58,2.54,2.54,0,0,0,0,5.08,2.76,2.76,0,0,0,1.78-.66.25.25,0,0,1,.41.07l.09.13a.3.3,0,0,1-.08.43,3.5,3.5,0,0,1-2.25.8,3.31,3.31,0,1,1,0-6.62Z"/><path class="cls-2" d="M162.37,75.76h-.53a.27.27,0,0,1-.3-.3v-.1a.28.28,0,0,1,.3-.31h.54V73.57a.28.28,0,0,1,.31-.31h.23a.28.28,0,0,1,.3.31V75h1.28a.28.28,0,0,1,.31.31v.1a.28.28,0,0,1-.31.3h-1.28v3.16c0,1.46.89,1.63,1.38,1.66.25,0,.34.1.34.31v.16c0,.2-.1.3-.35.3A2.08,2.08,0,0,1,162.37,79Z"/><path class="cls-2" d="M175.36,75.31a.28.28,0,0,1,.31-.31h.23a.28.28,0,0,1,.3.31v.85a2.58,2.58,0,0,1-.05.5h0a2.25,2.25,0,0,1,2-1.71c.23,0,.33.1.33.3v.23a.31.31,0,0,1-.35.31c-1.33,0-2,1.52-2,2.84V81a.28.28,0,0,1-.3.31h-.24a.28.28,0,0,1-.31-.31Z"/><path class="cls-2" d="M182.1,74.85c1.68,0,2.64,1.22,2.64,3a.31.31,0,0,1-.33.31h-4.54a2.41,2.41,0,0,0,2.45,2.52,2.71,2.71,0,0,0,1.66-.58.26.26,0,0,1,.41.07l.1.15a.29.29,0,0,1-.09.41,3.6,3.6,0,0,1-2.11.7,3.19,3.19,0,0,1-3.3-3.3A3.08,3.08,0,0,1,182.1,74.85Zm1.77,2.69a1.81,1.81,0,0,0-1.8-2,2.18,2.18,0,0,0-2.17,2Z"/><path class="cls-2" d="M189.12,74.85a3.32,3.32,0,0,1,2.1.72.27.27,0,0,1,0,.43l-.09.14c-.11.18-.25.18-.43.06a2.61,2.61,0,0,0-1.59-.58,2.54,2.54,0,0,0,0,5.08,2.76,2.76,0,0,0,1.78-.66.25.25,0,0,1,.41.07l.09.13a.3.3,0,0,1-.08.43,3.5,3.5,0,0,1-2.25.8,3.31,3.31,0,1,1,0-6.62Z"/><path class="cls-2" d="M192.91,75.31a.28.28,0,0,1,.31-.31h.23a.28.28,0,0,1,.3.31v.85a2.58,2.58,0,0,1-.05.5h0a2.25,2.25,0,0,1,2-1.71c.23,0,.33.1.33.3v.23a.31.31,0,0,1-.35.31c-1.33,0-2,1.52-2,2.84V81a.28.28,0,0,1-.3.31h-.24a.28.28,0,0,1-.31-.31Z"/><path class="cls-2" d="M197.08,75.31a.27.27,0,0,1,.3-.31h.24a.28.28,0,0,1,.31.31v3.48c0,1,.15,1.87,1.37,1.87A2.45,2.45,0,0,0,201.64,78V75.31A.28.28,0,0,1,202,75h.24a.27.27,0,0,1,.3.31V81a.27.27,0,0,1-.3.31H202a.28.28,0,0,1-.3-.31v-.73a2.71,2.71,0,0,1,0-.45h0a2.74,2.74,0,0,1-2.49,1.64c-1.49,0-2.11-.8-2.11-2.45Z"/><path class="cls-2" d="M204.42,73.25V72.8a.28.28,0,0,1,.3-.31H205a.27.27,0,0,1,.3.31v.45a.27.27,0,0,1-.3.3h-.31A.27.27,0,0,1,204.42,73.25Zm0,2.06a.28.28,0,0,1,.31-.31H205a.28.28,0,0,1,.3.31V81a.28.28,0,0,1-.3.31h-.24a.28.28,0,0,1-.31-.31Z"/><path class="cls-2" d="M207.49,75.76H207a.27.27,0,0,1-.3-.3v-.1A.28.28,0,0,1,207,75h.54V73.57a.28.28,0,0,1,.31-.31H208a.28.28,0,0,1,.3.31V75h1.28a.28.28,0,0,1,.31.31v.1a.28.28,0,0,1-.31.3h-1.28v3.16c0,1.46.89,1.63,1.38,1.66.25,0,.34.1.34.31v.16c0,.2-.1.3-.35.3A2.08,2.08,0,0,1,207.49,79Z"/><path class="cls-2" d="M220.48,75.31a.28.28,0,0,1,.31-.31H221a.28.28,0,0,1,.3.31v.85a2.58,2.58,0,0,1-.05.5h0a2.25,2.25,0,0,1,2-1.71c.23,0,.33.1.33.3v.23a.31.31,0,0,1-.35.31c-1.33,0-2,1.52-2,2.84V81a.28.28,0,0,1-.3.31h-.24a.28.28,0,0,1-.31-.31Z"/><path class="cls-2" d="M227.22,74.85c1.68,0,2.64,1.22,2.64,3a.31.31,0,0,1-.33.31H225a2.41,2.41,0,0,0,2.45,2.52,2.7,2.7,0,0,0,1.66-.58.26.26,0,0,1,.41.07l.1.15a.29.29,0,0,1-.09.41,3.61,3.61,0,0,1-2.11.7,3.19,3.19,0,0,1-3.3-3.3A3.08,3.08,0,0,1,227.22,74.85ZM229,77.53a1.81,1.81,0,0,0-1.79-2,2.18,2.18,0,0,0-2.17,2Z"/><path class="cls-2" d="M231.57,75.76H231a.27.27,0,0,1-.3-.3v-.1A.27.27,0,0,1,231,75h.54V73.57a.28.28,0,0,1,.31-.31h.23a.27.27,0,0,1,.3.31V75h1.28a.28.28,0,0,1,.31.31v.1a.28.28,0,0,1-.31.3h-1.28v3.16c0,1.46.89,1.63,1.38,1.66.25,0,.34.1.34.31v.16c0,.2-.1.3-.35.3A2.08,2.08,0,0,1,231.57,79Z"/><path class="cls-2" d="M238.65,77.45H239v-.2c0-1.22-.67-1.63-1.56-1.63a3,3,0,0,0-1.53.44.3.3,0,0,1-.43-.1l-.07-.13a.28.28,0,0,1,.09-.43,3.84,3.84,0,0,1,2-.55,2.15,2.15,0,0,1,2.35,2.42V81a.28.28,0,0,1-.3.31h-.2A.28.28,0,0,1,239,81v-.5a2.67,2.67,0,0,1,0-.48h0a2.35,2.35,0,0,1-2.13,1.44,1.94,1.94,0,0,1-2.13-1.85C234.8,77.56,237.43,77.45,238.65,77.45Zm-1.57,3.3A2.2,2.2,0,0,0,239,78.39v-.3h-.35c-1,0-3,0-3,1.46A1.26,1.26,0,0,0,237.08,80.75Z"/><path class="cls-2" d="M241.69,73.25V72.8a.28.28,0,0,1,.3-.31h.31a.28.28,0,0,1,.3.31v.45a.27.27,0,0,1-.3.3H242A.27.27,0,0,1,241.69,73.25Zm0,2.06A.28.28,0,0,1,242,75h.24a.28.28,0,0,1,.3.31V81a.28.28,0,0,1-.3.31H242a.28.28,0,0,1-.31-.31Z"/><path class="cls-2" d="M244.52,75.31a.28.28,0,0,1,.31-.31h.23a.28.28,0,0,1,.3.31V76a2,2,0,0,1-.05.45h0a2.79,2.79,0,0,1,2.55-1.64c1.57,0,2.12.89,2.12,2.45V81a.28.28,0,0,1-.31.31h-.24a.28.28,0,0,1-.3-.31V77.52c0-1-.16-1.87-1.38-1.87a2.45,2.45,0,0,0-2.4,2.57V81a.28.28,0,0,1-.3.31h-.24a.28.28,0,0,1-.31-.31Z"/></svg>